<?xml version="1.0" encoding="UTF-8"?>
<!DOCTYPE svg PUBLIC "-//W3C//DTD SVG 1.1//EN" "http://www.w3.org/Graphics/SVG/1.1/DTD/svg11.dtd">
<!-- Creator: CorelDRAW 2019 (64 Bit) -->
<svg xmlns="http://www.w3.org/2000/svg" xml:space="preserve" width="22.4912mm" height="11.1165mm" version="1.1" style="shape-rendering:geometricPrecision; text-rendering:geometricPrecision; image-rendering:optimizeQuality; fill-rule:evenodd; clip-rule:evenodd"
viewBox="0 0 1627.78 804.54"
 xmlns:xlink="http://www.w3.org/1999/xlink">
 <defs>
  <style type="text/css">
   <![CDATA[
    .fil0 {fill:#A8AFC9}
   ]]>
  </style>
 </defs>
 <g id="Camada_x0020_1">
  <metadata id="CorelCorpID_0Corel-Layer"/>
  <g id="_2997268399344">
   <path class="fil0" d="M1613.37 467.42c-377.79,-58.5 -883.66,-25.5 -1230.61,78 -4.44,1.25 -7.16,3.5 -8.4,8 -0.98,3.25 -4.44,16.26 -4.93,18.51 -1.24,4.99 1.48,11.25 7.4,9.99 406.17,-93.75 779.28,-100.75 1189.15,-6.25 17.28,4 29.62,-6.51 35.29,-21.25 0,0 18.01,-46.25 24.67,-62.26 4.94,-11.5 -0.49,-22.75 -12.59,-24.75z"/>
   <path class="fil0" d="M412.86 442.67c5.18,24 43.19,50.75 76.75,42 24.43,-6.25 54.78,-59.25 82.17,-118.5 -0.25,4.25 -0.25,7.5 0,9.5 5.18,28.5 54.78,48.75 77.73,43.75 12.34,-2.75 24.43,-14.75 35.78,-32 9.38,15.5 42.94,21.75 63.91,19.75 10.61,-1 16.53,-7.51 19.24,-12.75 11.36,-23.75 69.34,-133 130.54,-233.5 -24.18,81.75 -47.87,170.25 -46.64,185 1.73,20 42.19,28.75 66.38,26.25 10.61,-1.01 15.55,-4.75 18.01,-10 9.87,-20.5 56.76,-106 109.81,-189 -20.73,66.5 -40.71,134.25 -39.73,147.51 2.47,29 56.51,54 79.95,51.75 24.43,-2.5 51.08,-39.5 75.02,-83.75 13.08,43.75 58.49,87.75 90.81,92 108.08,14.5 238.38,-177.25 269.72,-261.5 0.49,-1 0.74,-2 0.98,-3.25 46.4,84 72.8,196.5 19.25,237.5 -25.91,19.75 -63.91,-8.25 -51.08,-64 1.73,-7.75 -3.95,-13.75 -12.83,-10.75 -15.55,5.75 -34.79,19.01 -52.8,35.01 -4.2,3.75 -6.17,8 -6.17,13.24 1.73,69.5 85.38,96.76 148.8,40 67.86,-60.75 87.11,-196.75 -3.21,-361.25 -2.22,-4 -5.93,-6.75 -11.36,-5.25 -11.84,3 -53.55,19 -72.55,32.25 -2.96,2 -4.44,5 -4.94,8.5 -24.67,95 -148.3,312 -241.08,299.75 -15.3,-2 -19.5,-14.5 -17.28,-33.76 2.22,-13.5 5.43,-27.25 9.63,-41.25 87.1,4.75 188.53,-129.51 188.28,-190.5 -0.25,-38.5 -60.46,-74.25 -99.94,-74 -34.3,0.25 -99.7,92.25 -135.97,184.25 -25.91,57.25 -60.21,129.75 -77.73,131.5 -1.98,0.25 -3.45,-2 -3.95,-6.25 -3.21,-37.5 55.28,-215.51 68.36,-244.75 3.21,-7.5 0,-16.5 -6.67,-20 -11.59,-5.75 -29.61,-12.75 -45.4,-17 -9.63,-2.5 -17.52,3 -23.44,10 -8.64,10.5 -76.75,108.75 -131.28,197.26 20.48,-80.26 49.6,-167.26 56.76,-189 2.22,-7 -1.24,-13.25 -6.67,-15.5 -11.1,-4.75 -28.13,-12 -45.9,-17.75 -9.37,-3 -18.26,2.5 -23.69,9.75 -7.9,10.5 -83.4,127.75 -143.62,230.5 12.34,-43.75 53.55,-176.75 53.8,-177.5 1.48,-5 0,-10.25 -3.94,-12 -11.11,-5.25 -32.08,-14.25 -53.3,-20.75 -9.87,-3 -13.82,0.75 -16.53,9.5 -8.15,27.25 -91.31,303.5 -116.97,309 -2.71,0.5 -3.7,-1.5 -4.44,-5.75 -6.17,-35 34.55,-202 43.68,-236.5 2.47,-9 1.48,-13.75 -6.17,-17.75 -11.35,-5.75 -36.27,-11.5 -43.68,-12.75 -7.4,-1 -10.86,2.25 -13.08,9.26 -3.45,10.25 -7.4,22.25 -14.81,43 0,0 -55.76,-59.75 -102.16,-47.5 -53.8,14 -120.67,280.5 -106.36,348zm934.5 -389.5c17.03,53.5 -63.17,160.25 -109.81,183 30.1,-80.25 82.91,-157 109.81,-183zm-784.71 90.5c14.32,-3.75 44.42,27 47.14,30.25 -30.11,86.5 -99.45,249 -115.98,253.25 -1.24,0.25 -2.22,-1 -2.71,-3 -6.91,-32.26 51.33,-275.25 71.56,-280.51z"/>
   <path class="fil0" d="M414.35 75.92c-17.03,-5.25 -47.88,-11.75 -72.06,-13.25 -11.36,-0.75 -18.26,5.5 -19.25,16 -23.93,238.25 -47.38,603.25 -150.28,655.01 -53.55,27 -100.68,-35.5 -40.23,-145.75 5.43,-9.75 0.99,-20 -11.35,-19.75 -30.85,0.25 -64.9,8 -85.13,15.5 -7.16,2.75 -12.83,8.5 -15.79,15.5 -71.81,165.25 62.68,245 163.11,186 107.59,-63.5 163.85,-273.51 239.12,-694.01 1.48,-8 -1.48,-13.25 -8.14,-15.25z"/>
  </g>
 </g>
</svg>
